<svg viewBox="0 0 936.74216463 246.20411097" xmlns="http://www.w3.org/2000/svg" fill="#fff"><path d="m480.39841142 73.93554127c.97114812-.57861419 1.95053497-.36744363 2.88693992-.36984575 7.23379533-.0186104 14.46765452-.01041448 21.70144985-.01039852 12.89884732.00002394 25.7977585.01101301 38.69660581-.0050995 5.22131023-.00652002 10.22573114.91859711 14.88495571 3.35107668 8.35324056 4.36105787 13.76749032 11.06496692 15.90087397 20.28029012 1.66339292 7.18533738.49700609 14.00536191-2.97373397 20.46661755-.40861539.76072795-.85101596 1.50334028-1.38793838 2.4482569.66842274.58731288 1.33965559 1.12883396 1.95628292 1.72668102 4.36595138 4.2332271 7.37295959 9.2527036 8.54381705 15.25500385 1.79323273 9.19249913-.23438864 17.51406036-6.24316804 24.69347625-5.90333646 7.0533887-13.57161295 10.71510421-22.79943607 11.02212789-.6965877.02317521-1.39438885.01109282-2.09161521.01110878-21.96291772.00046287-43.92589931.00309641-65.88881703-.00793256-1.02766963-.00051075-2.08235463.17612842-3.26534664-.30817287-.04540881-.7060619-.13520456-1.46426803-.13660962-2.22264972-.0114959-6.27288521-.00664208-12.54580235-.00664208-18.81871948.00006387-24.83026108-.00236305-49.66053812.00868579-74.4907992.00044706-1.02291749-.17971924-2.07730986.21369602-3.02102143zm20.83574469 78.25076196c.99062728.52993348 1.96867294.33264091 2.91025105.33345492 14.90967189.01284852 29.81940766.00908175 44.72907955.0061609.78427587-.00015961 1.56944587-.00775699 2.35276375-.04368496 5.85984363-.26879735 10.88815047-6.33541998 8.58897039-13.27361894-1.40652341-4.24447952-5.04963812-6.71429959-9.85818166-6.72121066-15.52004034-.02226544-31.04008068-.01019901-46.56012102-.00269739-.67666147.00033518-1.35332294.0863963-2.01925491.13180503-.13169193.37942228-.28452354.61530828-.28528993.85168906-.01967076 5.92664562-.0263767 11.85335509-.02222541 17.78004859.00025546.32908163.11272369.65809942.16400818.93805344zm-.18042177-58.20030068v6.77680244c0 2.26576009-.04623907 4.5327332.01322029 6.79692912.05645764 2.14485634-.26689649 4.31491493.26664102 6.58452159 1.03156546.02039802 1.97831673.05482566 2.92506799.05535237 7.93293767.00437328 15.86593921.00258566 23.79887688.00247394 5.23050695-.0000798 10.46126937.02435632 15.69145699-.01916903 1.20617542-.01005536 2.45290582-.0996598 3.60754128-.4184307 3.30807307-.91320233 6.78290057-4.1357699 6.97692582-9.44458543.14631727-4.00331047-2.1779622-8.08506872-6.24137979-9.72056518-1.48252409-.59669788-3.02489073-.77087907-4.60627956-.77032044-13.33786298.00472442-26.67566209.00084593-40.01352507.00834755-.68189849.00038306-1.36379698.08140054-2.41854585.14864377zm-199.07664681-20.64602593c1.00311311 0 1.78314188-.00000798 2.56313873-.00000798 15.6017251.00011971 31.20348213-.02005486 46.8051753.00520325 22.39711149.03624718 41.89885274 14.74920324 47.8937732 36.27846493 7.95771772 28.57800578-10.43128423 56.63399468-38.06979184 62.06615597-3.00065354.58973893-6.01542148.96534656-9.07754616.9642293-15.95037021-.00585765-31.90074042-.0022026-47.85111064-.0018355-.69083975.00001596-1.3816795.00001596-2.18722278.00001596-.1233574-.6082376-.26785448-1.09003303-.30860106-1.58044735-.0503265-.60582751-.01561526-1.21883742-.01561526-1.82873495-.00025546-30.84384567-.00127732-61.68769134.00443869-92.53153701.0001916-1.02582237-.10956232-2.06819619.24336182-3.37150662zm19.69423371 20.12397713v36.31463231c0 6.70590416-.00737654 13.41180833.00942025 20.11768057.00210758.8451451-.20427576 1.7360341.37652267 2.69172432.79944407.03718887 1.64975751.11027379 2.50013481.11107183 8.79915377.00831562 17.59849913.0361993 26.39730164-.01886577 1.99361266-.01246546 4.02129789-.14187635 5.97227993-.52662957 17.51706984-3.4544793 27.71492342-20.86686879 22.98148643-37.35548984-3.12404287-10.88240626-13.39135085-21.41506153-28.90011882-21.48206534-8.88610748-.0384019-17.77253429-.01051823-26.65880144-.00162801-.76690429.00076612-1.53371278.0831722-2.67822546.1495695zm-101.49660213 47.99390197c-1.68973769-12.52845286-5.82618619-24.1531682-12.46427035-34.9115743-17.78040579-28.81681262-49.85331329-47.61584434-85.96493817-48.88696964-7.5178239-.26462358-14.98514567.28665759-22.38658955 1.59890611-6.35507744 1.1267351-12.61510614 2.7045489-18.64764374 4.99118583-6.52307725 2.47257332-12.80513178 5.50331493-18.74705135 9.18779066-16.21752216 10.05619876-28.95435712 23.35929746-37.65413521 40.41622196-.43487235.85263075-.89806134 1.70318659-1.21411078 2.60180067-1.10642453 3.14589145.2827752 6.53049398 3.21544326 7.97334249 3.03640259 1.49389144 6.62984543.4306727 8.42551305-2.51636202.36140237-.5931386.63869307-1.2378628.94902649-1.86167823 2.25642172-4.5360371 4.8418577-8.87853246 7.93427088-12.89113217 16.97781631-22.02976329 39.55547731-33.85916108 67.08054274-36.38221072 8.43859762-.7735206 16.89121386-.24262947 25.25203853 1.368375 17.8252398 3.43465588 33.42793886 11.24965038 46.66601104 23.67592162 8.16224895 7.66169015 14.57953199 16.6075616 19.22341272 26.80995413 4.24810243 9.33282727 6.20353912 19.19609877 6.65992637 29.37247505.29700936 6.6219818.11981283 13.24262289-.86841948 19.81986632-.15490726 1.03105754-.26954693 2.08415708-.24460721 3.12325891.07762926 3.23340501 2.53893347 5.81467998 5.68085885 6.1241776 4.05006958.39894245 6.55266323-2.48897314 7.0026-4.94770038.20360517-1.11284115.40420863-2.23573765.4726731-3.36219344.28535379-4.69444894.51996596-9.39199429.7731951-14.08840642-.08583606-5.76783477-.37253104-11.49677284-1.14374629-17.21504904zm-63.58109486 10.03534586c-1.21869318-8.49393885-4.93779259-15.78485752-11.2997516-21.5401151-10.76131237-9.73502574-23.36399655-12.8060287-37.37764284-9.26047656-10.83675421 2.74177768-19.02020672 9.19474961-24.36481048 19.08119632-2.74352856 5.0749406-4.00103637 10.54966958-4.1437452 16.30077733-.03233222 1.30346206-.03364148 2.62692311-.26132417 3.90337934-2.77424816 15.55288194-18.42111064 22.23498842-29.08876335 20.22211267-.91426736-.1725053-1.93275624-.1728724-2.83472937.037955-3.14765736.73571723-5.20345965 3.62377647-4.96141507 6.77437638.24780052 3.22552033 2.87637008 5.78971715 6.21115516 5.96460062 1.91315733.10033016 3.83334791.11523763 5.74970652.09732951 6.94748354-.06491294 13.45574386-1.84480757 19.40365088-5.40025546 9.70852739-5.80344351 15.89514199-14.19461019 17.96735787-25.40330492.42496512-2.29863952.46783525-4.67449783.59837758-7.0196793.4075616-7.32229778 3.55509123-13.24712386 9.32817275-17.66094843 7.51370454-5.74457975 15.94079029-7.13059153 24.96171914-4.40190178 10.13306141 3.06514531 18.24983769 12.33615606 17.70365469 24.30458916-.16250733 3.56076287-.44327873 7.12936254-.92332837 10.65994337-1.46330039 10.76244421-5.10175287 20.7845904-10.91130194 29.95255764-9.09475807 14.35228782-21.36222499 25.13747629-36.85748528 32.20444771-1.02535448.46765408-2.08281766.92997723-2.98697022 1.58549099-2.28332532 1.65539969-3.15945663 4.37819986-2.3735362 6.93714554 1.12980751 3.67863405 4.84161022 5.53900348 8.54686665 4.19273432 1.55055747-.56335558 3.04064969-1.3035259 4.53133268-2.01937182 10.01026284-4.80700514 18.73078146-11.41966578 26.5208666-19.25847393 17.44225069-17.55139288 26.37841323-38.77252959 27.21341477-63.64588507-.10110006-2.09130756-.03142213-4.37772104-.35147119-6.60822352zm-10.11680749-107.57184295c28.0748409 6.00479014 51.09643525 20.18809204 69.06380909 42.5662656 1.36251966 1.69702569 2.65178489 3.45487833 3.92652058 5.21954627.7347477 1.01713965 1.59502425 1.84431278 2.77625995 2.28990891 2.3584159.88966002 5.24899619.18730105 6.96514252-1.67418565 1.76842075-1.9182117 2.17055373-4.64088419.98171796-7.04047634-.34519634-.69670882-.80819373-1.34149686-1.26515577-1.97555918-7.85055039-10.89248556-17.07792644-20.44484689-27.85804738-28.46872156-21.64484851-16.11071505-46.13384665-24.47459658-72.89435487-26.40229704-9.65365043-.695408-19.32261276-.44490981-28.9561294.8111883-8.4835434 1.10615353-16.83223351 2.7953105-24.96898391 5.41596896-4.30227686 1.38566862-8.54872675 2.97672198-12.72978573 4.69529487-2.88898364 1.18747427-4.15152888 3.98565773-3.62686078 7.08886976.44624052 2.63930078 2.691805 4.71047367 5.55436403 5.14702796 1.35420908.20653392 2.57006022-.22058748 3.79041391-.72014738 16.33009417-6.68483579 33.36989255-9.72394091 51.67554922-9.90800987 8.80605131.12650602 18.24179056.96110894 27.56554058 2.95532641zm-99.67459772 113.54431228c.32483104 3.05312676 2.64027303 5.21357689 5.71370998 5.48219867 2.93371387.2564117 5.55607245-1.4021642 6.45840483-4.23032221.31054898-.97334297.33738871-2.04457407.43614967-3.07660523.24861481-2.59785833.27687557-5.23170846.72585434-7.79290463 1.90346564-10.85854473 6.79728641-20.23261494 14.43957738-28.15845782 14.69704564-15.24237878 36.93350192-21.40888466 57.65277078-16.35118182 9.12158184 2.22663994 17.28095682 6.37591276 24.47475599 12.41415693.86739762.72805601 1.69026459 1.51990769 2.61359296 2.16862211 3.56388879 2.50391253 8.54509437.83236042 9.75513369-3.30120688.71740805-2.45079469.19723452-4.71591634-1.70816307-6.45866997-1.73212883-1.58429392-3.57375611-3.05938343-5.44623072-4.47824272-11.33564436-8.58935305-24.14720266-13.39745949-38.28733579-14.55998688-5.9983852-.49315958-12.00021917-.21730752-17.9718764.78484485-11.82439576 1.98428979-22.59367542 6.43988401-32.07640417 13.75806388-16.34353001 12.61290193-25.44044356 29.19168605-26.80283549 49.88745409 0 1.30488258-.11438421 2.62194331.022896 3.91223763zm842.9839824-27.40270967c7.52534414 7.51492976 15.04525965 15.03539796 22.56670796 22.55431794 6.0408402 6.03883472 12.07631564 12.08314402 18.13293077 18.10617746.52766183.5246983.91424341 1.31228843 1.49069895 1.31353338 1.6702266-1.51318815 3.1476414-2.85170033 4.76562551-4.31756444-.7578353-.7900481-1.39573004-1.47989374-2.05968216-2.143771-13.43634453-13.43493566-26.87626555-26.86613646-40.31184369-40.30180632-.65788483-.65786001-1.28115423-1.35027535-2.00686488-2.11801013 2.58970703-2.59153782 5.04982972-5.05435105 7.51103813-7.51603107 2.46504038-2.46543082 4.93116648-4.92980823 7.39690938-7.39461657 2.40404824-2.40321527 4.80809648-4.80635074 7.21214472-7.20950217 2.46580677-2.46479239 4.93142194-4.9296167 7.39710098-7.39448889 2.46567904-2.46480835 4.93825562-4.92278543 7.39512113-7.39634035 2.44645534-2.46311649 4.95268936-4.86949202 7.35590734-7.41954748-.83198386-1.32751512-1.96637376-2.16812732-2.91497715-3.17302497-.46398731-.49140389-1.0037837-.91132693-1.61504627-1.45829865-.72226188.6724323-1.36456338 1.23511753-1.96745949 1.83709846-7.58620854 7.57510232-15.16679687 15.15580691-22.74879025 22.73507503-6.04096793 6.03881876-12.07631564 12.08314402-18.13261144 18.10657648-.52747023.52458658-.91513754 1.30742036-1.9201347 1.31737995-.6500293-.63278545-1.34221024-1.29155523-2.01804145-1.96671685-7.2756915-7.26924378-14.54882835-14.54110515-21.82254-21.81231212-6.41081659-6.40852086-12.81646003-12.82221304-19.24177423-19.21611373-.52913075-.52646198-.92005523-1.30382916-1.93309952-1.32835307-1.41980757 1.39591551-3.01531081 2.70097366-4.1742253 4.3412105.13807854.23355571.16898974.32186731.22857682.38156104 14.47231675 14.49240847 28.94680495 28.98264627 43.41899397 43.47521435.24486268.24522312.46488144.51571232.68898763.78077483.05435006.06438623.08954029.15079849.11412874.23288535.02254474.07514387.0188405.1581405.04330122.40658772-2.38048164 2.38648826-4.83683623 4.85191908-7.29644799 7.31407792-2.52558545 2.52817308-5.05423648 5.05329763-7.58154632 7.57977886-2.46561517 2.46485623-4.93142194 4.92955285-7.39716485 7.39440908-2.46567904 2.46477643-4.93123034 4.92971246-7.39690938 7.39447293-2.5273737 2.52643334-5.06004829 5.04758363-7.58052446 7.58081632-2.44658307 2.45903051-4.9401716 4.87360993-7.42047598 7.47895392 1.34540354 1.35871866 2.56186141 2.59864041 3.79460513 3.82217033.23279198.23101792.53047194.39672389.94202517.69781012 2.2433611-2.15342734 4.363269-4.32738039 6.51447129-6.46819863 2.10055647-2.09036586 4.19268261-4.18915908 6.28851299-6.28421744 2.15746118-2.15671528 4.31485848-4.31346249 6.47231966-6.47019374 2.09583038-2.09507433 4.19172462-4.19016461 6.28755499-6.28528682 2.15746118-2.15671528 4.31492235-4.31341461 6.47244739-6.47012989 2.09583038-2.09509029 4.17697155-4.20511997 6.29157856-6.28104123 2.16052675-2.12102673 4.1976003-4.37382658 6.62259662-6.4444169.76747908.72376253 1.4694954 1.35361117 2.13587443 2.01910049zm-702.46515307 12.58016615c-.5230475-2.10937528-1.08296172-4.21999552-1.80369081-6.26757024-1.06672376-3.03043037-4.24208305-4.80062078-7.27795875-4.22262907-3.26351049.62132553-5.48478988 3.37449928-5.27797544 6.7564523.07295107 1.19310846.41172887 2.403327.82051989 3.53675769 1.6738031 4.64091611 2.41621473 9.42027699 2.42933922 14.34215265.01373121 5.1479936-.32292304 10.26307583-1.01026611 15.36727275-.96814641 7.18948721-2.64683527 14.19167338-5.17535856 20.99189044-3.48843098 9.38187509-8.62313876 17.85539996-14.39374546 25.96758623-3.79952282 5.34121613-8.31011497 10.07585459-12.88372701 14.74933092-.66962023.68424336-1.38474507 1.34425809-1.94267944 2.11405183-2.64346633 3.64741454-.95350511 8.61971066 3.33357162 9.90590303 2.48469517.74546934 4.65385981.18358216 6.47300622-1.64371631 4.36567994-4.3852865 8.65475249-8.84032208 12.52738603-13.67934477 4.80659562-6.00605105 8.80600341-12.53194829 12.55294845-19.2297124 4.83991777-8.65144091 8.21150569-17.8472599 10.38121319-27.50311963 1.83967936-8.18709073 2.73394865-16.4827634 2.91283763-24.86628481.09599077-5.50392145-.33698955-10.96133286-1.66542067-16.31902063zm472.86532597-65.68848c-.01136817 30.85313491-.00919672 61.70626982-.00906899 92.55940472 0 .52292664-.0273347 1.04802397.01117657 1.56817342.03704235.49981528.14312396.99455499.22059356 1.50257416 1.21945957.34817086 2.35653185.21427495 3.47706281.21454629 30.42811558.0074697 60.8561673.00598533 91.28428288.00572996.69748182 0 1.39598551.01913711 2.09212614-.01257718.49611197-.0225687.98915836-.11554088 1.63995406-.19657432.02605737-2.28448221.26957886-4.41111122-.18476467-6.6860967-1.14243704-.02130779-2.17413023-.05720383-3.20582343-.05736344-21.53507863-.00325602-43.07015726-.00242606-64.60523588-.00244202-6.97494597-.00001596-13.94982808.00751758-20.92477405-.00999152-.84833358-.00215472-1.74207597.21001339-2.60592902-.34387738-.33912906-.97243319-.20552115-2.02261189-.20615981-3.05258409-.00855806-14.29353578-.00574795-28.58708753-.00574795-42.88062331s.0037681-28.58708753-.00855806-42.88062331c-.00083026-.9377023.15896276-1.90539511-.1880857-2.7795571-2.10943386-.47553078-4.45287316-.47241841-6.54212532-.00097361-.43365091.96949639-.23853993 2.0278311-.23892313 3.05285542zm-519.33483694-61.97285658c8.93601885 1.65650099 17.63025656 4.1149569 25.92929076 7.88109653.77787329.35299903 1.65556932.5934658 2.50502056.66200984 2.87940372.2323347 5.46834436-1.5466741 6.45338336-4.32128333.96340435-2.71367055.00804713-5.77273476-2.44798812-7.3542834-1.16190023-.74818269-2.46315633-1.30028584-3.74349627-1.84139194-14.03149687-5.93014106-28.71134656-9.04826456-43.88377961-9.83934214-7.40565904-.38612985-14.80617686-.11230082-22.18258522.85548775-7.45073255.97753669-14.74647801 2.58267952-21.90631638 4.83759817-.58054297.182832-1.16739272.37320551-1.71054208.64230612-2.40848693 1.19328403-3.86672593 3.87654908-3.54822563 6.46281981.34534004 2.8039613 2.36219997 4.93343933 5.14808773 5.56423765 1.53468674.34749252 2.9274949-.07934159 4.34634448-.51976639 10.81283636-3.35639963 21.86791688-5.11133941 33.72900372-4.97971793 6.82240176-.12542068 14.09627308.61267473 21.3118027 1.95022925zm-73.98545952 206.86594527c7.50719019-.85368417 14.6778379-2.95203048 21.39315216-6.41755472 12.78217989-6.59644438 22.27440872-16.53913726 29.18159275-29.0535605.20978422-.38007668.38710848-.7795618.55884446-1.17888731 1.50371167-3.49658413-.4122398-6.90621333-3.02559325-8.23693659-3.00787041-1.53160702-6.62258066-.50517813-8.44672459 2.42437941-.36655956.58871743-.64159897 1.23441525-.95829506 1.85409681-6.37929867 12.4825653-16.41419786 20.75179077-29.48541982 25.48443412-4.36225512 1.57942585-8.90359881 2.35206062-13.51824483 2.77326851-4.0038864.36540862-7.99987734.45162935-11.99617964-.01286448-2.6799259-.31149273-5.35012818-.7078974-8.03125955-1.00743543-4.48348897-.50091658-8.06187537 3.90101713-6.69724813 8.20011482.86054798 2.71108488 2.85475938 4.06262114 5.53197896 4.54614035 4.89693424.88442485 9.83696214 1.31648614 14.82704511 1.50118556 3.55621687-.28541264 7.12350653-.47352769 10.66635144-.87638056zm-32.04462279-167.23590089c-.76261728.40221443-1.45228348.95582589-2.1387963 1.4870921-12.3808612 9.58078768-22.71846183 21.01062055-31.0135483 34.28527695-.32250391.51607942-.6445927 1.03515949-.92310883 1.5754037-.52666392 1.02154485-.81874362 2.11153-.73036888 3.26741767.20692222 2.70628066 2.11781629 5.05982564 4.61970741 5.72694296 2.72187396.7257736 5.29100014-.14881934 6.95440902-2.38594559.31064478-.41780822.56990128-.87417795.84686466-1.31651807 7.51676213-12.00488778 16.93355709-22.28097174 28.14843862-30.92195827.55113263-.4246315 1.12395578-.82968697 1.62636654-1.30726075 1.32148568-1.25615398 2.00598672-2.81226895 2.0431089-4.03320522.04916094-5.46810521-5.12848084-8.64752251-9.43307284-6.37724549zm-20.36866785 83.55944979c.0385432 3.58818368 2.82857428 6.58075482 6.39958414 6.53406922 4.10909783-.0537084 6.5365051-3.13149473 6.54264423-6.40117885.00821478-4.37441713-3.64401681-6.65344072-6.40684891-6.48840511-3.73382055-.18580072-6.5695638 3.17326438-6.53537946 6.35551474zm172.36154739-109.16703017c.05974675 3.7245216 2.92351924 6.36591326 6.57854497 6.33494913 3.61763212-.03064491 6.30784845-2.92281407 6.34323028-6.5577472.03014481-3.09380309-2.70099373-6.48641-6.56609108-6.30237296-2.87485326-.12721628-6.42462764 2.22776519-6.35568417 6.52517102zm-74.84975963 127.61213714c.04045918 3.61517355 2.80733081 6.36497955 6.56832639 6.35280139 3.60048407-.01165145 6.33738653-2.92061945 6.36874479-6.54094836.02687167-3.10206285-2.70396351-6.49250706-6.55874648-6.32601902-2.86413972-.12037703-6.42660749 2.19984161-6.37832471 6.51416599z"/></svg>
